<svg xmlns="http://www.w3.org/2000/svg" xmlns:xlink="http://www.w3.org/1999/xlink" width="500" zoomAndPan="magnify" viewBox="0 0 375 374.999991" height="500" preserveAspectRatio="xMidYMid meet" version="1.0"><defs><g/></defs><g fill="#000000" fill-opacity="1"><g transform="translate(88.363536, 341.225204)"><g><path d="M 27.40625 -284.40625 C 34.757812 -291.757812 43.539062 -295.4375 53.75 -295.4375 C 63.957031 -295.4375 72.738281 -291.757812 80.09375 -284.40625 C 87.445312 -277.050781 91.125 -268.269531 91.125 -258.0625 C 91.125 -247.863281 87.445312 -239.082031 80.09375 -231.71875 C 72.738281 -224.363281 63.957031 -220.6875 53.75 -220.6875 C 43.539062 -220.6875 34.757812 -224.363281 27.40625 -231.71875 C 20.050781 -239.082031 16.375 -247.863281 16.375 -258.0625 C 16.375 -268.269531 20.050781 -277.050781 27.40625 -284.40625 Z M 21.359375 -182.609375 L 21.359375 0 L 84.359375 0 L 84.359375 -182.609375 Z M 21.359375 -182.609375 "/></g></g></g><g fill="#000000" fill-opacity="1"><g transform="translate(162.402113, 341.225204)"><g><path d="M 61.9375 -76.171875 C 73.320312 -76.171875 82.988281 -72.195312 90.9375 -64.25 C 98.894531 -56.300781 102.875 -46.628906 102.875 -35.234375 C 102.875 -24.085938 98.894531 -14.535156 90.9375 -6.578125 C 82.988281 1.367188 73.320312 5.34375 61.9375 5.34375 C 50.78125 5.34375 41.226562 1.367188 33.28125 -6.578125 C 25.332031 -14.535156 21.359375 -24.085938 21.359375 -35.234375 C 21.359375 -46.628906 25.332031 -56.300781 33.28125 -64.25 C 41.226562 -72.195312 50.78125 -76.171875 61.9375 -76.171875 Z M 61.9375 -76.171875 "/></g></g></g></svg>